<svg xmlns="http://www.w3.org/2000/svg" viewBox="0 0 900 1125" width="900" height="1125">
  <defs>
    <linearGradient id="bg" x1="0" y1="0" x2="1" y2="1">
      <stop offset="0%" stop-color="#101014"/>
      <stop offset="100%" stop-color="#08080b"/>
    </linearGradient>
    <linearGradient id="glow" x1="0" y1="0" x2="0" y2="1">
      <stop offset="0%" stop-color="#c8ff3f" stop-opacity="0.55"/>
      <stop offset="100%" stop-color="#c8ff3f" stop-opacity="0"/>
    </linearGradient>
  </defs>
  <rect width="900" height="1125" fill="url(#bg)"/>
  <circle cx="450" cy="360" r="280" fill="url(#glow)"/>
  <g stroke="#232329" stroke-width="1">
    <line x1="0" y1="200" x2="900" y2="200"/>
    <line x1="0" y1="400" x2="900" y2="400"/>
    <line x1="0" y1="600" x2="900" y2="600"/>
    <line x1="0" y1="800" x2="900" y2="800"/>
    <line x1="0" y1="1000" x2="900" y2="1000"/>
  </g>
  <g fill="none" stroke="#c8ff3f" stroke-width="2.5" opacity="0.85">
    <path d="M60,560 L140,560 L170,420 L210,700 L250,300 L290,760 L330,560 L410,560 L450,480 L490,640 L530,560 L610,560 L650,440 L690,680 L730,560 L840,560"/>
  </g>
  <g font-family="IBM Plex Mono, monospace" fill="#9a988f" font-size="18" letter-spacing="2">
    <text x="60" y="1050">TR-8S // ABLETON 12 // PUSH 3</text>
  </g>
</svg>
