<svg xmlns="http://www.w3.org/2000/svg" viewBox="0 0 1200 900" width="1200" height="900">
  <defs>
    <linearGradient id="bg2" x1="0" y1="0" x2="1" y2="1">
      <stop offset="0%" stop-color="#101014"/>
      <stop offset="100%" stop-color="#08080b"/>
    </linearGradient>
  </defs>
  <rect width="1200" height="900" fill="url(#bg2)"/>
  <g stroke="#232329" stroke-width="1">
    <line x1="0" y1="150" x2="1200" y2="150"/>
    <line x1="0" y1="300" x2="1200" y2="300"/>
    <line x1="0" y1="450" x2="1200" y2="450"/>
    <line x1="0" y1="600" x2="1200" y2="600"/>
    <line x1="0" y1="750" x2="1200" y2="750"/>
  </g>
  <g fill="none" stroke="#ff3f8f" stroke-width="2" opacity="0.7">
    <circle cx="300" cy="450" r="140"/>
    <circle cx="300" cy="450" r="90"/>
    <circle cx="300" cy="450" r="40"/>
  </g>
  <g fill="none" stroke="#c8ff3f" stroke-width="2" opacity="0.85">
    <rect x="620" y="330" width="420" height="240" rx="6"/>
    <line x1="660" y1="380" x2="660" y2="520"/>
    <line x1="720" y1="380" x2="720" y2="520"/>
    <line x1="780" y1="380" x2="780" y2="520"/>
    <line x1="840" y1="380" x2="840" y2="520"/>
    <line x1="900" y1="380" x2="900" y2="520"/>
    <line x1="960" y1="380" x2="960" y2="520"/>
  </g>
  <g font-family="IBM Plex Mono, monospace" fill="#9a988f" font-size="20" letter-spacing="2">
    <text x="60" y="820">STUDIO RIG — MAC STUDIO / TR-8S / PUSH 3</text>
  </g>
</svg>
